D:\school\WTK\thesis\model\3dpredictsim\Results\debug_batch\Pog_s1_tmt_aCst_d05_k800_ig24_pas_GRF.mot
nRows=17
nColumns=19

name D:\school\WTK\thesis\model\3dpredictsim\Results\debug_batch\Pog_s1_tmt_aCst_d05_k800_ig24_pas_GRF.mot
datacolumns 19
datarows 17
range 0.0000000000 0.1782896883
endheader
time 	ground_force_vx	ground_force_vy	ground_force_vz	ground_force_px	ground_force_py	ground_force_pz	1_ground_force_vx	1_ground_force_vy	1_ground_force_vz	1_ground_force_px	1_ground_force_py	1_ground_force_pz	ground_torque_x	ground_torque_y	ground_torque_z	1_ground_torque_x	1_ground_torque_y	1_ground_torque_z
        0.0000000000	      -95.7732047946	       89.0723059549	       40.8823921709	        0.1704424199	        0.0000000000	        0.0377264171	       95.0130847198	      477.5440836180	       -5.2648948509	       -0.3217039857	        0.0000000000	       -0.0348950239	        0.0000000000	        0.0000000000	        0.0000000000	        0.0000000000	        0.0000000000	        0.0000000000	
        0.0111431055	      -87.5591276331	      190.5394881758	       74.4741162271	        0.1766545365	        0.0000000000	        0.0359550094	       76.3933090651	      394.9609076689	       -9.8994815869	       -0.3175718704	        0.0000000000	       -0.0336170270	        0.0000000000	        0.0000000000	        0.0000000000	        0.0000000000	        0.0000000000	        0.0000000000	
        0.0222862110	      -44.0511642991	      347.9825739277	       16.3294620084	        0.1806167383	        0.0000000000	        0.0342143399	       53.6033523508	      302.0884427905	       -7.5831454587	       -0.3109303393	        0.0000000000	       -0.0309641976	        0.0000000000	        0.0000000000	        0.0000000000	        0.0000000000	        0.0000000000	        0.0000000000	
        0.0334293166	      -49.4220381977	      513.1472820882	       -2.2490766601	        0.1858080592	        0.0000000000	        0.0351534906	       25.0895008624	      200.3200197854	       -5.8638770886	       -0.2985284751	        0.0000000000	       -0.0252838703	        0.0000000000	        0.0000000000	        0.0000000000	        0.0000000000	        0.0000000000	        0.0000000000	
        0.0445724221	      -84.8988869806	      689.7983188223	       -9.5813805138	        0.1939275009	        0.0000000000	        0.0376209425	        6.3464377288	      140.3885250691	      -10.3941408069	       -0.2864656816	        0.0000000000	       -0.0191340591	        0.0000000000	        0.0000000000	        0.0000000000	        0.0000000000	        0.0000000000	        0.0000000000	
        0.0557155276	     -107.1277502231	      800.1895717607	      -12.4860044026	        0.1995987198	        0.0000000000	        0.0392349185	        1.2720786317	      109.3400352834	      -11.4553867999	       -0.2863868904	        0.0000000000	       -0.0193863620	        0.0000000000	        0.0000000000	        0.0000000000	        0.0000000000	        0.0000000000	        0.0000000000	
        0.0668586331	     -111.3556129821	      839.2352715166	      -13.3586306448	        0.2035077714	        0.0000000000	        0.0402004154	       -2.3341617416	       71.5461512279	      -10.7095978458	       -0.2858884447	        0.0000000000	       -0.0194608254	        0.0000000000	        0.0000000000	        0.0000000000	        0.0000000000	        0.0000000000	        0.0000000000	
        0.0780017386	     -106.3872303859	      835.3246726562	      -13.4909606224	        0.2066525566	        0.0000000000	        0.0407654838	       -8.3021176323	       29.5371510647	       -5.7652861042	       -0.2862431199	        0.0000000000	       -0.0192900964	        0.0000000000	        0.0000000000	        0.0000000000	        0.0000000000	        0.0000000000	        0.0000000000	
        0.0891448442	      -97.2331412581	      817.2957398350	      -13.8407193725	        0.2098959442	        0.0000000000	        0.0410481357	        0.1027286931	       -0.1014688987	        0.0018100022	        0.0000000000	        0.0000000000	        0.0000000000	        0.0000000000	        0.0000000000	        0.0000000000	        0.0000000000	        0.0000000000	        0.0000000000	
        0.1002879497	      -85.1293911352	      788.3488424287	      -14.5233974869	        0.2132792401	        0.0000000000	        0.0411652902	        0.0001969572	       -0.0001595742	       -0.0000113251	        0.0000000000	        0.0000000000	        0.0000000000	        0.0000000000	        0.0000000000	        0.0000000000	        0.0000000000	        0.0000000000	        0.0000000000	
        0.1114310552	      -74.0638838563	      755.3947204617	      -14.9183878276	        0.2172247103	        0.0000000000	        0.0411872112	        0.0000991971	       -0.0000698599	       -0.0000073890	        0.0000000000	        0.0000000000	        0.0000000000	        0.0000000000	        0.0000000000	        0.0000000000	        0.0000000000	        0.0000000000	        0.0000000000	
        0.1225741607	      -64.6631003277	      724.8587410364	      -15.0905637663	        0.2217533415	        0.0000000000	        0.0410896762	        0.0010611628	       -0.0006699443	       -0.0000877688	        0.0000000000	        0.0000000000	        0.0000000000	        0.0000000000	        0.0000000000	        0.0000000000	        0.0000000000	        0.0000000000	        0.0000000000	
        0.1337172662	      -55.3373324145	      694.6602844944	      -15.6486623832	        0.2263139333	        0.0000000000	        0.0409945588	        0.0034018729	       -0.0019691611	       -0.0002975516	        0.0000000000	        0.0000000000	        0.0000000000	        0.0000000000	        0.0000000000	        0.0000000000	        0.0000000000	        0.0000000000	        0.0000000000	
        0.1448603718	      -46.4374868777	      666.0538743594	      -16.2547181269	        0.2308229153	        0.0000000000	        0.0409561224	       -0.0343759466	        0.0185328547	        0.0031204317	        0.0000000000	        0.0000000000	        0.0000000000	        0.0000000000	        0.0000000000	        0.0000000000	        0.0000000000	        0.0000000000	        0.0000000000	
        0.1560034773	      -38.6396997994	      641.1642656507	      -16.7334715352	        0.2353350210	        0.0000000000	        0.0409663024	       -0.0227895187	        0.0115642194	        0.0021325295	        0.0000000000	        0.0000000000	        0.0000000000	        0.0000000000	        0.0000000000	        0.0000000000	        0.0000000000	        0.0000000000	        0.0000000000	
        0.1671465828	      -32.0891345036	      620.4753061990	      -17.3302743187	        0.2398559072	        0.0000000000	        0.0410015778	       -0.0157606043	        0.0075934390	        0.0015100151	        0.0000000000	        0.0000000000	        0.0000000000	        0.0000000000	        0.0000000000	        0.0000000000	        0.0000000000	        0.0000000000	        0.0000000000	
        0.1782896883	      -26.4046343441	      604.2676344055	      -17.7747467098	        0.2446416440	        0.0000000000	        0.0410447712	       -0.0140795223	        0.0064886717	        0.0013697370	        0.0000000000	        0.0000000000	        0.0000000000	        0.0000000000	        0.0000000000	        0.0000000000	        0.0000000000	        0.0000000000	        0.0000000000	
